<svg width="80" height="80" viewBox="0 0 80 80" fill="none" xmlns="http://www.w3.org/2000/svg">
<rect width="80" height="80" rx="12" fill="#E1D9F4"/>
<path d="M39.5 28.75C39.5 34.9632 34.4632 40 28.25 40H17V28.75C17 22.5368 22.0368 17.5 28.25 17.5C34.4632 17.5 39.5 22.5368 39.5 28.75Z" fill="#6940C9"/>
<path d="M39.5 51.25C39.5 45.0368 44.5368 40 50.75 40H62V51.25C62 57.4632 56.9632 62.5 50.75 62.5C44.5368 62.5 39.5 57.4632 39.5 51.25Z" fill="#6940C9"/>
<path d="M17 51.25C17 57.4632 22.0368 62.5 28.25 62.5H39.5V51.25C39.5 45.0368 34.4632 40 28.25 40C22.0368 40 17 45.0368 17 51.25Z" fill="#6940C9"/>
<path d="M62 28.75C62 22.5368 56.9632 17.5 50.75 17.5H39.5V28.75C39.5 34.9632 44.5368 40 50.75 40C56.9632 40 62 34.9632 62 28.75Z" fill="#6940C9"/>
</svg>
