<svg width="48" height="48" viewBox="0 0 48 48" fill="none" xmlns="http://www.w3.org/2000/svg">
<rect width="48" height="48" rx="7.2" fill="#E1D9F4"/>
<path d="M13.8453 34.0355L21.27 26.6109M30.6196 23.3092L28.3971 29.9779C28.3615 30.0845 28.3007 30.181 28.2199 30.2592C28.1391 30.3374 28.0406 30.395 27.9328 30.427L14.3085 34.4777C14.1857 34.5142 14.0553 34.5162 13.9315 34.4837C13.8076 34.4512 13.6951 34.3854 13.6061 34.2934C13.517 34.2013 13.455 34.0866 13.4266 33.9618C13.3982 33.8369 13.4046 33.7067 13.4451 33.5852L17.8691 20.3155C17.9008 20.2203 17.9527 20.1329 18.0211 20.0594C18.0896 19.986 18.173 19.9281 18.2658 19.8897L24.5506 17.302C24.6784 17.2493 24.8189 17.2355 24.9545 17.2625C25.0901 17.2895 25.2147 17.356 25.3125 17.4537L30.4505 22.5929C30.5424 22.6848 30.6069 22.8005 30.6368 22.927C30.6667 23.0535 30.6607 23.1859 30.6196 23.3092Z" stroke="#6940C9" stroke-width="1.75" stroke-linecap="round" stroke-linejoin="round"/>
<path d="M31.4698 13.7122L34.2278 16.4702C34.4351 16.6685 34.6006 16.9062 34.7148 17.1694C34.8289 17.4325 34.8894 17.7158 34.8925 18.0026C34.8957 18.2894 34.8416 18.574 34.7333 18.8396C34.625 19.1052 34.4647 19.3465 34.2619 19.5493C34.0591 19.7521 33.8178 19.9124 33.5522 20.0207C33.2866 20.129 33.002 20.1831 32.7152 20.1799C32.4284 20.1768 32.1451 20.1163 31.8819 20.0022C31.6188 19.8881 31.3811 19.7225 31.1828 19.5152L28.4237 16.7572C28.0345 16.3505 27.8201 15.8075 27.8263 15.2446C27.8325 14.6817 28.0589 14.1436 28.457 13.7455C28.855 13.3475 29.3931 13.1211 29.956 13.1149C30.5189 13.1087 31.0631 13.3231 31.4698 13.7122Z" fill="#6940C9" stroke="#6940C9" stroke-width="1.75" stroke-linecap="round" stroke-linejoin="round"/>
<path d="M23.7441 24.1353C23.5827 23.9682 23.3896 23.8349 23.1761 23.7432C22.9626 23.6514 22.7329 23.6032 22.5006 23.6011C22.2682 23.5991 22.0378 23.6434 21.8227 23.7314C21.6076 23.8194 21.4122 23.9493 21.2479 24.1136C21.0836 24.2779 20.9537 24.4733 20.8657 24.6884C20.7777 24.9035 20.7334 25.1339 20.7354 25.3663C20.7374 25.5986 20.7857 25.8283 20.8774 26.0418C20.9691 26.2553 21.1025 26.4484 21.2696 26.6098C21.5997 26.9286 22.0417 27.105 22.5006 27.101C22.9594 27.097 23.3983 26.913 23.7228 26.5885C24.0473 26.264 24.2313 25.8251 24.2353 25.3663C24.2393 24.9074 24.0629 24.4654 23.7441 24.1353Z" stroke="#6940C9" stroke-width="1.75" stroke-linecap="round" stroke-linejoin="round"/>
</svg>
