<svg width="16" height="16" viewBox="0 0 16 16" fill="none" xmlns="http://www.w3.org/2000/svg">
<g clip-path="url(#clip0_657_4040)">
<path d="M4.0358 8.50042L4.0363 5.29829C4.0363 5.23079 4.0383 5.16254 4.04855 5.09617C4.08755 4.84367 4.2043 4.73242 4.46255 4.71579L6.48842 4.59417L10.5407 4.35692L13.4244 4.19079C13.7433 4.17379 13.881 4.30504 13.9019 4.62542C13.9049 4.67229 13.9034 4.71917 13.9034 4.76604L13.9029 12.8257L13.8985 13.0132C13.8659 13.3588 13.7048 13.5117 13.356 13.5312L7.76042 13.851L4.83017 14.0238L4.56517 14.0273C4.21505 14.0073 4.04355 13.8329 4.0368 13.4833L4.0358 12.702V8.50042ZM9.75655 8.50867L8.14805 6.05804C8.09192 5.97254 8.0368 5.94429 7.9333 5.95554L7.24767 6.00179L5.98642 6.09417C5.67642 6.12254 5.48892 6.41404 5.5748 6.71629L6.2428 6.77342V12.185L5.7878 12.3134C5.58605 12.3729 5.49967 12.5429 5.56755 12.7602L7.10605 12.6718L7.71205 12.622C7.9733 12.579 8.11392 12.4189 8.14905 12.1577L7.3078 11.9658V7.89542L7.3703 7.98292L9.3038 11.0019C9.58801 11.4428 9.87989 11.8787 10.1793 12.3094C10.3927 12.6157 10.7072 12.7094 11.0607 12.6332C11.2819 12.5859 11.4943 12.496 11.711 12.4262C11.8239 12.3895 11.8624 12.3222 11.8619 12.1957L11.8582 6.63317C11.8582 6.30804 11.8582 6.30804 12.1798 6.24317C12.505 6.17767 12.5865 6.04779 12.5123 5.70017L10.5685 5.81829C10.357 5.83342 10.1969 6.01017 10.1648 6.21579C10.149 6.31492 10.1695 6.36954 10.2882 6.37642L10.8767 6.44142V10.2138C10.5039 9.64518 10.1305 9.07697 9.75655 8.50917V8.50867ZM11.1929 1.93054C11.512 2.15089 11.8302 2.37256 12.1474 2.59554C12.3559 2.7413 12.5625 2.88977 12.7672 3.04092C12.8252 3.08392 12.8697 3.14492 12.9463 3.22454L12.7862 3.25379L8.60992 3.50429L4.73055 3.74754C4.2378 3.78317 3.80767 3.70204 3.43805 3.35104C3.24317 3.16604 3.01717 3.01317 2.80467 2.84567C2.7153 2.77479 2.62067 2.70892 2.53855 2.63029C2.49417 2.58779 2.43355 2.51029 2.4473 2.47154C2.4658 2.41692 2.54205 2.35642 2.60155 2.34567C2.7803 2.31342 2.96242 2.30017 3.14355 2.28704L9.1373 1.85154L10.3985 1.76354C10.6719 1.74854 10.9375 1.79229 11.1929 1.93054Z" fill="white"/>
<path d="M11.1631 0.0419922C11.1936 0.0657077 11.2189 0.0810503 11.2451 0.0927734C11.541 0.226523 11.8623 0.323227 12.1289 0.500977C12.9018 1.01467 13.6569 1.55563 14.4111 2.09668C14.7617 2.34751 15.1075 2.60851 15.4307 2.89258C15.6709 3.10358 15.7787 3.40341 15.7793 3.72266L15.7783 13.7686C15.7779 13.9087 15.7538 14.0537 15.7148 14.1885C15.5375 14.8024 15.1448 15.2226 14.5264 15.3867C14.2001 15.4731 13.855 15.5004 13.5166 15.5283C12.9889 15.5722 12.4593 15.5933 11.9307 15.625L10.9297 15.6875L9.32812 15.7822L8.34277 15.8428L6.72559 15.9365L5.88965 15.9717C5.86279 15.9731 5.83786 16.0102 5.8125 16.0312C5.17625 16.0312 4.54006 16.0317 3.89844 16.0215C3.86777 15.9972 3.84467 15.9775 3.81738 15.9697C3.42963 15.8574 3.10449 15.6422 2.85449 15.3311C2.50831 14.901 2.17864 14.4579 1.8457 14.0176C1.43651 13.4765 1.01657 12.9433 0.629883 12.3867C0.402657 12.0615 0.280922 11.6741 0.28125 11.2773C0.28016 8.31023 0.280387 5.34309 0.282227 2.37598C0.282229 2.29048 0.297751 2.20413 0.3125 2.11914C0.46775 1.20564 1.14399 0.718305 1.94824 0.62793C2.36557 0.581077 2.78575 0.55996 3.20508 0.532227L4.31445 0.467773L4.79102 0.436523L6.22852 0.313477L7.02539 0.250977L8.34473 0.157227L9.4541 0.0908203C9.48102 0.0887601 9.50594 0.052193 9.53125 0.03125L11.1631 0.0419922ZM10.5107 0.963867C10.4451 0.963253 10.3784 0.965354 10.3105 0.970703L4.00391 1.43652L1.98047 1.59473C1.57172 1.63235 1.31837 1.88233 1.24512 2.2832C1.22702 2.38458 1.21876 2.4894 1.21875 2.59277L1.21094 10.873C1.20961 11.1237 1.24563 11.3551 1.31543 11.5723C1.39668 11.8248 1.52366 12.0591 1.69824 12.2822L3.23535 14.2646C3.24237 14.2737 3.24983 14.2822 3.25684 14.291C3.31955 14.3708 3.38733 14.4478 3.44141 14.5332L3.55273 14.6855C3.78666 14.9643 4.08825 15.0906 4.45215 15.1025C4.51321 15.1046 4.57608 15.1049 4.64062 15.1006L8.11621 14.8936L12.0283 14.6572L12.2061 14.6455C12.7913 14.6107 13.3767 14.5781 13.9609 14.5312H13.9766C14.5537 14.4848 14.8325 14.1728 14.8438 13.5938V13.4688L14.8477 3.98633C14.8482 3.70071 14.75 3.50044 14.5215 3.34082L11.7686 1.40039C11.6376 1.30509 11.5032 1.22678 11.3662 1.16211C11.2866 1.1245 11.2063 1.09142 11.124 1.06445C10.9288 1.00051 10.7256 0.965815 10.5107 0.963867Z" fill="white"/>
</g>
<defs>
<clipPath id="clip0_657_4040">
<rect width="16" height="16" fill="white"/>
</clipPath>
</defs>
</svg>
