<svg width="16" height="16" viewBox="0 0 16 16" fill="none" xmlns="http://www.w3.org/2000/svg">
<g clip-path="url(#clip0_657_4049)">
<path d="M3.40625 10.0894C3.40625 11.0057 2.659 11.7541 1.74262 11.7541C0.82625 11.7541 0.078125 11.0057 0.078125 10.0894C0.078125 9.17318 0.8265 8.4248 1.74275 8.4248H3.40638L3.40625 10.0894ZM4.24487 10.0894C4.24487 9.17318 4.99325 8.4248 5.9095 8.4248C6.82575 8.4248 7.57412 9.17305 7.57412 10.0894V14.2563C7.57412 15.1726 6.82587 15.9209 5.9095 15.9209C4.99325 15.9209 4.24487 15.1726 4.24487 14.2563V10.0894Z" fill="#DE1C59"/>
<path d="M5.9095 3.40723C4.99325 3.40723 4.24487 2.65998 4.24487 1.7436C4.24487 0.827227 4.99325 0.0791016 5.9095 0.0791016C6.82575 0.0791016 7.57412 0.827477 7.57412 1.74373V3.40735L5.9095 3.40723ZM5.9095 4.24585C6.82575 4.24585 7.57412 4.99423 7.57412 5.91048C7.57412 6.82673 6.82587 7.5751 5.9095 7.5751H1.74262C0.826375 7.5751 0.078125 6.82685 0.078125 5.91048C0.078125 4.99423 0.8265 4.24585 1.74275 4.24585H5.9095Z" fill="#35C5F0"/>
<path d="M12.5937 5.91048C12.5937 4.99423 13.3409 4.24585 14.2573 4.24585C15.1737 4.24585 15.9219 4.99423 15.9219 5.91048C15.9219 6.82673 15.1735 7.5751 14.2573 7.5751H12.5937V5.91048ZM11.755 5.91048C11.755 6.82673 11.0067 7.5751 10.0904 7.5751C9.17416 7.5751 8.42578 6.82685 8.42578 5.91048V1.7436C8.42578 0.827352 9.17403 0.0791016 10.0904 0.0791016C11.0067 0.0791016 11.755 0.827477 11.755 1.74373V5.91048Z" fill="#2EB57D"/>
<path d="M10.0904 12.5927C11.0067 12.5927 11.755 13.3399 11.755 14.2563C11.755 15.1727 11.0067 15.9209 10.0904 15.9209C9.17416 15.9209 8.42578 15.1726 8.42578 14.2563V12.5927H10.0904ZM10.0904 11.7541C9.17416 11.7541 8.42578 11.0057 8.42578 10.0894C8.42578 9.17318 9.17403 8.4248 10.0904 8.4248H14.2573C15.1735 8.4248 15.9219 9.17305 15.9219 10.0894C15.9219 11.0057 15.1735 11.7541 14.2573 11.7541H10.0904Z" fill="#EBB02E"/>
</g>
<defs>
<clipPath id="clip0_657_4049">
<rect width="16" height="16" fill="white"/>
</clipPath>
</defs>
</svg>
