<svg width="16" height="16" viewBox="0 0 16 16" fill="none" xmlns="http://www.w3.org/2000/svg">
<g clip-path="url(#clip0_659_4054)">
<path d="M1.5625 0H14.4375C15.3031 0 16 0.696875 16 1.5625V14.4375C16 15.3031 15.3031 16 14.4375 16H1.5625C0.696875 16 0 15.3031 0 14.4375V1.5625C0 0.696875 0.696875 0 1.5625 0Z" fill="url(#paint0_linear_659_4054)"/>
<path d="M9.79008 2.08008H13.1701C13.5856 2.08008 13.9201 2.41458 13.9201 2.83008V8.33008C13.9201 8.74558 13.5856 9.08008 13.1701 9.08008H9.79008C9.37458 9.08008 9.04008 8.74558 9.04008 8.33008V2.83008C9.04008 2.41458 9.37458 2.08008 9.79008 2.08008ZM2.83008 2.08008H6.21008C6.62558 2.08008 6.96008 2.41458 6.96008 2.83008V12.3301C6.96008 12.7456 6.62558 13.0801 6.21008 13.0801H2.83008C2.41458 13.0801 2.08008 12.7456 2.08008 12.3301V2.83008C2.08008 2.41458 2.41458 2.08008 2.83008 2.08008Z" fill="white"/>
</g>
<defs>
<linearGradient id="paint0_linear_659_4054" x1="8" y1="0" x2="8" y2="16" gradientUnits="userSpaceOnUse">
<stop stop-color="#2684FF"/>
<stop offset="1" stop-color="#0052CC"/>
</linearGradient>
<clipPath id="clip0_659_4054">
<rect width="16" height="16" fill="white"/>
</clipPath>
</defs>
</svg>
