<svg width="24" height="24" viewBox="0 0 24 24" fill="none" xmlns="http://www.w3.org/2000/svg">
<path fill-rule="evenodd" clip-rule="evenodd" d="M15.9511 1C16.1395 2.27997 15.6186 3.53392 14.9313 4.4211C14.196 5.37271 12.9286 6.10872 11.7006 6.07031C11.4765 4.84486 12.0504 3.58224 12.7488 2.73347C13.5149 1.79673 14.8278 1.07806 15.9511 1ZM19.639 19.0162C20.2721 18.046 20.5086 17.5566 21 16.4612C17.4257 15.102 16.853 10.0205 20.3903 8.07018C19.3114 6.71711 17.7952 5.93277 16.364 5.93277C15.3328 5.93277 14.6262 6.20188 13.9839 6.44653C13.4486 6.65041 12.9579 6.8373 12.3611 6.8373C11.7162 6.8373 11.1451 6.63253 10.5471 6.41811C9.88997 6.1825 9.20037 5.93525 8.34468 5.93525C6.73859 5.93525 5.02904 6.9166 3.94518 8.59431C2.42162 10.9572 2.6815 15.3993 5.15221 19.1835C6.03531 20.5378 7.21524 22.0594 8.75851 22.073C9.39887 22.0794 9.82499 21.8882 10.2861 21.6814C10.8139 21.4447 11.3876 21.1874 12.3808 21.1821C13.3799 21.1761 13.9446 21.4366 14.4653 21.6768C14.9146 21.884 15.3313 22.0762 15.9662 22.0693C17.5107 22.0569 18.7559 20.3705 19.639 19.0162Z" fill="#020617"/>
</svg>
