<svg width="16" height="16" viewBox="0 0 16 16" fill="none" xmlns="http://www.w3.org/2000/svg">
<path d="M7.80003 3.016C9.26469 3.016 10.2527 3.64867 10.816 4.17733L13.0174 2.028C11.6654 0.771333 9.90603 0 7.80003 0C4.74936 0 2.11469 1.75067 0.832027 4.29867L3.35403 6.25733C3.98669 4.37667 5.73736 3.016 7.80003 3.016Z" fill="#EA4335"/>
<path d="M15.2883 7.97333C15.2883 7.332 15.2363 6.864 15.1236 6.37866H7.80029V9.27333H12.099C12.0123 9.99266 11.5443 11.076 10.5043 11.804L12.9656 13.7107C14.439 12.35 15.2883 10.348 15.2883 7.97333Z" fill="#4285F4"/>
<path d="M3.36267 9.34271C3.198 8.85737 3.10267 8.33737 3.10267 7.80004C3.10267 7.26271 3.198 6.74271 3.354 6.25737L0.832 4.29871C0.303333 5.35604 0 6.54337 0 7.80004C0 9.05671 0.303333 10.244 0.832 11.3014L3.36267 9.34271Z" fill="#FBBC05"/>
<path d="M7.80015 15.6C9.90615 15.6 11.6741 14.9067 12.9655 13.7107L10.5041 11.804C9.84548 12.2633 8.96148 12.584 7.80015 12.584C5.73748 12.584 3.98682 11.2233 3.36282 9.34265L0.840816 11.3013C2.12348 13.8493 4.74948 15.6 7.80015 15.6Z" fill="#34A853"/>
</svg>
